<svg xmlns="http://www.w3.org/2000/svg" width="19" height="19" viewBox="0 0 19 19" fill="none">
  <path fill-rule="evenodd" clip-rule="evenodd" d="M2.5 0.5C1.39539 0.5 0.5 1.39551 0.5 2.5V16.5C0.5 17.6045 1.39539 18.5 2.5 18.5H16.5C17.6046 18.5 18.5 17.6045 18.5 16.5V2.5C18.5 1.39551 17.6046 0.5 16.5 0.5H2.5ZM2.96594 6.89771V15.625H5.38635V6.89771H2.96594ZM3.25574 5.41479C3.51331 5.65332 3.82202 5.77271 4.18176 5.77271C4.54163 5.77271 4.84851 5.65332 5.10229 5.41479C5.35986 5.17236 5.48865 4.88257 5.48865 4.54541C5.48865 4.21216 5.35986 3.92603 5.10229 3.6875C4.84851 3.44507 4.54163 3.32397 4.18176 3.32397C3.82202 3.32397 3.51331 3.44507 3.25574 3.6875C3.00195 3.92603 2.875 4.21216 2.875 4.54541C2.875 4.88257 3.00195 5.17236 3.25574 5.41479ZM9.74573 15.625V10.5796C9.74951 10.2046 9.81958 9.88452 9.95593 9.61938C10.0961 9.35034 10.2893 9.14575 10.5355 9.00562C10.7855 8.86548 11.0734 8.79541 11.3992 8.79541C11.884 8.79541 12.2646 8.94702 12.5411 9.25C12.8177 9.54932 12.9541 9.96582 12.9503 10.5V15.625H15.3707V10.0681C15.3707 9.39014 15.2457 8.80688 14.9957 8.31812C14.7457 7.82568 14.3954 7.44702 13.9446 7.18188C13.4939 6.91675 12.9655 6.78418 12.3594 6.78418C11.7117 6.78418 11.1605 6.93359 10.7059 7.23291C10.2515 7.52832 9.92761 7.92993 9.73438 8.4375H9.63208V6.89771H7.32532V15.625H9.74573Z" fill="white"/>
</svg>